<svg width="152" height="193" viewBox="0 0 152 193" fill="none" xmlns="http://www.w3.org/2000/svg">
<g clip-path="url(#clip0_222_576)">
<path d="M121.171 0.358521H30.2951L0.359497 29.6181V162.859L30.1591 192.641H121.035L151.636 162.728V29.4873L121.171 0.358521ZM136.675 152.645L112.126 178.004H39.2326L15.3297 152.757V39.7977L39.3395 14.9907H112.233L136.675 39.6863V152.645Z" fill="#1D1D1B"/>
<path d="M130.774 43.9064V148.377L108.736 171.832H43.303L21.8434 148.478V44.0081L43.4002 21.0665H108.833L130.774 43.9064Z" fill="#E30613" stroke="#1D1D1B" stroke-width="1.49"/>
<path d="M48.136 1.53589H45.717V13.9297H48.136V1.53589Z" fill="white"/>
<path d="M51.7887 1.53589H49.3698V13.9297H51.7887V1.53589Z" fill="white"/>
<path d="M55.4414 1.53589H53.0225V13.9297H55.4414V1.53589Z" fill="white"/>
<path d="M59.0892 1.53589H56.6703V13.9297H59.0892V1.53589Z" fill="white"/>
<path d="M62.7419 1.53589H60.323V13.9297H62.7419V1.53589Z" fill="white"/>
<path d="M66.3946 1.53589H63.9757V13.9297H66.3946V1.53589Z" fill="white"/>
<path d="M70.0474 1.53589H67.6284V13.9297H70.0474V1.53589Z" fill="white"/>
<path d="M73.6952 1.53589H71.2762V13.9297H73.6952V1.53589Z" fill="white"/>
<path d="M77.3479 1.53589H74.929V13.9297H77.3479V1.53589Z" fill="white"/>
<path d="M81.0006 1.53589H78.5817V13.9297H81.0006V1.53589Z" fill="white"/>
<path d="M84.6533 1.53589H82.2344V13.9297H84.6533V1.53589Z" fill="white"/>
<path d="M88.3011 1.53589H85.8822V13.9297H88.3011V1.53589Z" fill="white"/>
<path d="M91.9539 1.53589H89.5349V13.9297H91.9539V1.53589Z" fill="white"/>
<path d="M95.6066 1.53589H93.1876V13.9297H95.6066V1.53589Z" fill="white"/>
<path d="M99.2544 1.53589H96.8354V13.9297H99.2544V1.53589Z" fill="white"/>
<path d="M102.907 1.53589H100.488V13.9297H102.907V1.53589Z" fill="white"/>
<path d="M106.56 1.53589H104.141V13.9297H106.56V1.53589Z" fill="white"/>
<path d="M150.669 145.717H137.996V148.076H150.669V145.717Z" fill="white"/>
<path d="M150.669 141.981H137.996V144.341H150.669V141.981Z" fill="white"/>
<path d="M150.669 138.245H137.996V140.605H150.669V138.245Z" fill="white"/>
<path d="M150.669 134.51H137.996V136.869H150.669V134.51Z" fill="white"/>
<path d="M150.669 130.774H137.996V133.134H150.669V130.774Z" fill="white"/>
<path d="M150.669 127.039H137.996V129.398H150.669V127.039Z" fill="white"/>
<path d="M150.669 123.303H137.996V125.663H150.669V123.303Z" fill="white"/>
<path d="M150.669 119.563H137.996V121.922H150.669V119.563Z" fill="white"/>
<path d="M150.669 115.827H137.996V118.187H150.669V115.827Z" fill="white"/>
<path d="M150.669 112.092H137.996V114.451H150.669V112.092Z" fill="white"/>
<path d="M150.669 108.356H137.996V110.716H150.669V108.356Z" fill="white"/>
<path d="M150.669 104.62H137.996V106.98H150.669V104.62Z" fill="white"/>
<path d="M150.669 100.885H137.996V103.244H150.669V100.885Z" fill="white"/>
<path d="M150.669 97.1493H137.996V99.5089H150.669V97.1493Z" fill="white"/>
<path d="M150.669 93.4137H137.996V95.7733H150.669V93.4137Z" fill="white"/>
<path d="M150.669 89.6781H137.996V92.0377H150.669V89.6781Z" fill="white"/>
<path d="M150.669 85.9425H137.996V88.3021H150.669V85.9425Z" fill="white"/>
<path d="M150.669 82.2021H137.996V84.5617H150.669V82.2021Z" fill="white"/>
<path d="M150.669 78.4666H137.996V80.8261H150.669V78.4666Z" fill="white"/>
<path d="M150.669 74.731H137.996V77.0905H150.669V74.731Z" fill="white"/>
<path d="M150.669 70.9954H137.996V73.3549H150.669V70.9954Z" fill="white"/>
<path d="M150.669 67.2598H137.996V69.6193H150.669V67.2598Z" fill="white"/>
<path d="M150.669 63.5242H137.996V65.8837H150.669V63.5242Z" fill="white"/>
<path d="M150.669 59.7886H137.996V62.1481H150.669V59.7886Z" fill="white"/>
<path d="M150.669 56.0531H137.996V58.4127H150.669V56.0531Z" fill="white"/>
<path d="M150.669 52.3175H137.996V54.6771H150.669V52.3175Z" fill="white"/>
<path d="M150.669 48.5819H137.996V50.9415H150.669V48.5819Z" fill="white"/>
<path d="M150.8 44.8414H138.127V47.201H150.8V44.8414Z" fill="white"/>
<path d="M14.2465 145.736H1.57373V148.096H14.2465V145.736Z" fill="white"/>
<path d="M14.2125 141.996H1.53979V144.36H14.2125V141.996Z" fill="white"/>
<path d="M14.2125 138.26H1.53979V140.624H14.2125V138.26Z" fill="white"/>
<path d="M14.2125 134.52H1.53979V136.884H14.2125V134.52Z" fill="white"/>
<path d="M14.2125 130.784H1.53979V133.148H14.2125V130.784Z" fill="white"/>
<path d="M14.2125 127.044H1.53979V129.408H14.2125V127.044Z" fill="white"/>
<path d="M14.2125 123.308H1.53979V125.672H14.2125V123.308Z" fill="white"/>
<path d="M14.2125 119.568H1.53979V121.932H14.2125V119.568Z" fill="white"/>
<path d="M14.2125 115.832H1.53979V118.196H14.2125V115.832Z" fill="white"/>
<path d="M14.2125 112.092H1.53979V114.456H14.2125V112.092Z" fill="white"/>
<path d="M14.2125 108.356H1.53979V110.72H14.2125V108.356Z" fill="white"/>
<path d="M14.2125 104.616H1.53979V106.98H14.2125V104.616Z" fill="white"/>
<path d="M14.2125 100.88H1.53979V103.244H14.2125V100.88Z" fill="white"/>
<path d="M14.2125 97.1395H1.53979V99.5039H14.2125V97.1395Z" fill="white"/>
<path d="M14.2125 93.4039H1.53979V95.7683H14.2125V93.4039Z" fill="white"/>
<path d="M14.2125 89.6636H1.53979V92.028H14.2125V89.6636Z" fill="white"/>
<path d="M14.2125 85.928H1.53979V88.2924H14.2125V85.928Z" fill="white"/>
<path d="M14.2125 82.1875H1.53979V84.5471H14.2125V82.1875Z" fill="white"/>
<path d="M14.2125 78.452H1.53979V80.8164H14.2125V78.452Z" fill="white"/>
<path d="M14.2125 74.7115H1.53979V77.076H14.2125V74.7115Z" fill="white"/>
<path d="M14.2125 70.976H1.53979V73.3404H14.2125V70.976Z" fill="white"/>
<path d="M14.2125 67.2356H1.53979V69.6H14.2125V67.2356Z" fill="white"/>
<path d="M14.2125 63.5H1.53979V65.8644H14.2125V63.5Z" fill="white"/>
<path d="M14.2125 59.7595H1.53979V62.1239H14.2125V59.7595Z" fill="white"/>
<path d="M14.2125 56.0239H1.53979V58.3835H14.2125V56.0239Z" fill="white"/>
<path d="M14.2125 52.2836H1.53979V54.648H14.2125V52.2836Z" fill="white"/>
<path d="M14.2125 48.548H1.53979V50.9075H14.2125V48.548Z" fill="white"/>
<path d="M14.2465 44.8075H1.57373V47.1719H14.2465V44.8075Z" fill="white"/>
<path d="M119.84 20.9454L118.13 19.2689L128.573 9.0603L130.283 10.7367L119.84 20.9454Z" fill="white"/>
<path d="M122.409 23.4551L120.699 21.7787L131.143 11.5701L132.852 13.2465L122.409 23.4551Z" fill="white"/>
<path d="M124.979 25.9649L123.264 24.2885L133.707 14.0798L135.422 15.7562L124.979 25.9649Z" fill="white"/>
<path d="M127.543 28.4746L125.834 26.7982L136.277 16.5896L137.987 18.266L127.543 28.4746Z" fill="white"/>
<path d="M130.113 30.9844L128.398 29.308L138.842 19.0994L140.556 20.7758L130.113 30.9844Z" fill="white"/>
<path d="M132.682 33.4942L130.968 31.8178L141.411 21.6091L143.121 23.2855L132.682 33.4942Z" fill="white"/>
<path d="M21.5131 10.7077L23.2083 9.01672L33.7681 19.1091L32.0729 20.8L21.5131 10.7077Z" fill="white"/>
<path d="M18.9775 13.2465L20.6679 11.5555L31.2277 21.6479L29.5373 23.3388L18.9775 13.2465Z" fill="white"/>
<path d="M16.4371 15.7853L18.1323 14.0944L28.6921 24.1819L26.9969 25.8777L16.4371 15.7853Z" fill="white"/>
<path d="M13.9016 18.3242L15.592 16.6333L26.1518 26.7208L24.4614 28.4166L13.9016 18.3242Z" fill="white"/>
<path d="M11.3612 20.863L13.0564 19.1672L23.6162 29.2596L21.9259 30.9554L11.3612 20.863Z" fill="white"/>
<path d="M8.82568 23.4018L10.516 21.7061L21.0758 31.7984L19.3855 33.4942L8.82568 23.4018Z" fill="white"/>
<path d="M107.75 13.9248V1.54553H110.392L108.517 13.9248" fill="white"/>
<path d="M109.144 13.9248L111.772 1.54553H114.856L109.819 13.9248H109.144Z" fill="white"/>
<path d="M110.727 13.9248L116.367 1.54553H119.31L111.704 13.9248" fill="white"/>
<path d="M113.758 14.9714L122.341 2.97009L124.814 5.38296L114.715 15.9017L113.758 14.9714Z" fill="white"/>
<path d="M117.309 18.4647L115.594 16.7931L126.038 6.58447L127.752 8.25603L117.309 18.4647Z" fill="white"/>
<path d="M138.176 43.7949H150.844V41.2076L138.181 43.0439" fill="white"/>
<path d="M138.176 42.4335L150.844 39.8607V36.8519L138.176 41.7746V42.4335Z" fill="white"/>
<path d="M138.176 40.8831L150.844 35.3742V32.4913L138.176 39.9286" fill="white"/>
<path d="M137.112 37.9179L149.387 29.5261L146.919 27.1133L136.16 36.9876L137.112 37.9179Z" fill="white"/>
<path d="M133.537 34.4488L135.247 36.1252L145.69 25.9165L143.981 24.2401L133.537 34.4488Z" fill="white"/>
<path d="M44.4688 13.9248V1.54553H41.8215L43.7013 13.9248" fill="white"/>
<path d="M43.0747 13.9248L40.4468 1.54553H37.3673L42.3995 13.9248H43.0747Z" fill="white"/>
<path d="M41.4912 13.9248L35.8567 1.54553H32.9083L40.5149 13.9248" fill="white"/>
<path d="M38.0522 14.9714L29.4693 2.97009L27.0018 5.38296L37.0953 15.9017L38.0522 14.9714Z" fill="white"/>
<path d="M34.5015 18.4647L36.2161 16.7931L25.7729 6.58447L24.0631 8.25603L34.5015 18.4647Z" fill="white"/>
<path d="M14.2368 43.8385H1.57373V41.2512L14.2368 43.0875" fill="white"/>
<path d="M14.2368 42.4771L1.57373 39.9043V36.8955L14.2368 41.8181V42.4771Z" fill="white"/>
<path d="M14.2368 40.9266L1.57373 35.4177V32.5349L14.2368 39.9722" fill="white"/>
<path d="M15.3054 37.9614L3.03101 29.5697L5.49852 27.1569L16.2575 37.0312L15.3054 37.9614Z" fill="white"/>
<path d="M6.33398 26.0957L8.02919 24.4048L18.589 34.4971L16.8938 36.1881L6.33398 26.0957Z" fill="white"/>
<path d="M48.136 179.119H45.717V191.513H48.136V179.119Z" fill="white"/>
<path d="M51.7887 179.119H49.3698V191.513H51.7887V179.119Z" fill="white"/>
<path d="M55.4414 179.119H53.0225V191.513H55.4414V179.119Z" fill="white"/>
<path d="M59.0892 179.119H56.6703V191.513H59.0892V179.119Z" fill="white"/>
<path d="M62.7419 179.119H60.323V191.513H62.7419V179.119Z" fill="white"/>
<path d="M66.3946 179.119H63.9757V191.513H66.3946V179.119Z" fill="white"/>
<path d="M70.0474 179.119H67.6284V191.513H70.0474V179.119Z" fill="white"/>
<path d="M73.6952 179.119H71.2762V191.513H73.6952V179.119Z" fill="white"/>
<path d="M77.3479 179.119H74.929V191.513H77.3479V179.119Z" fill="white"/>
<path d="M81.0006 179.119H78.5817V191.513H81.0006V179.119Z" fill="white"/>
<path d="M84.6533 179.119H82.2344V191.513H84.6533V179.119Z" fill="white"/>
<path d="M88.3011 179.119H85.8822V191.513H88.3011V179.119Z" fill="white"/>
<path d="M91.9539 179.119H89.5349V191.513H91.9539V179.119Z" fill="white"/>
<path d="M95.6066 179.119H93.1876V191.513H95.6066V179.119Z" fill="white"/>
<path d="M99.2544 179.119H96.8354V191.513H99.2544V179.119Z" fill="white"/>
<path d="M102.907 179.119H100.488V191.513H102.907V179.119Z" fill="white"/>
<path d="M106.56 179.119H104.141V191.513H106.56V179.119Z" fill="white"/>
<path d="M119.84 172.098L118.13 173.775L128.573 183.983L130.283 182.307L119.84 172.098Z" fill="white"/>
<path d="M122.409 169.588L120.699 171.265L131.143 181.473L132.852 179.797L122.409 169.588Z" fill="white"/>
<path d="M124.979 167.079L123.264 168.755L133.707 178.964L135.422 177.287L124.979 167.079Z" fill="white"/>
<path d="M127.543 164.569L125.834 166.245L136.277 176.449L137.987 174.777L127.543 164.569Z" fill="white"/>
<path d="M130.113 162.059L128.398 163.731L138.842 173.944L140.556 172.268L130.113 162.059Z" fill="white"/>
<path d="M132.682 159.549L130.968 161.226L141.411 171.43L143.121 169.758L132.682 159.549Z" fill="white"/>
<path d="M21.5131 182.336L23.2083 184.027L33.7681 173.934L32.0729 172.244L21.5131 182.336Z" fill="white"/>
<path d="M18.9775 179.797L20.6679 181.488L31.2277 171.4L29.5373 169.705L18.9775 179.797Z" fill="white"/>
<path d="M16.4371 177.258L18.1323 178.949L28.6921 168.857L26.9969 167.166L16.4371 177.258Z" fill="white"/>
<path d="M13.9016 174.719L15.592 176.41L26.1518 166.318L24.4614 164.627L13.9016 174.719Z" fill="white"/>
<path d="M11.3612 172.181L13.0564 173.872L23.6162 163.779L21.9259 162.088L11.3612 172.181Z" fill="white"/>
<path d="M8.82568 169.642L10.516 171.333L21.0758 161.245L19.3855 159.549L8.82568 169.642Z" fill="white"/>
<path d="M107.75 179.119V191.498H110.392L108.517 179.119" fill="white"/>
<path d="M109.144 179.119L111.772 191.498H114.856L109.819 179.119H109.144Z" fill="white"/>
<path d="M110.727 179.119L116.367 191.498H119.31L111.704 179.119" fill="white"/>
<path d="M113.758 178.072L122.341 190.074L124.814 187.661L114.715 177.142L113.758 178.072Z" fill="white"/>
<path d="M117.309 174.579L115.594 176.25L126.038 186.459L127.752 184.788L117.309 174.579Z" fill="white"/>
<path d="M138.176 149.249H150.844V151.836L138.181 150" fill="white"/>
<path d="M138.176 150.61L150.844 153.183V156.192L138.176 151.269V150.61Z" fill="white"/>
<path d="M138.176 152.161L150.844 157.67V160.552L138.176 153.115" fill="white"/>
<path d="M137.112 155.126L149.387 163.513L146.919 165.93L136.16 156.056L137.112 155.126Z" fill="white"/>
<path d="M133.537 158.595L135.247 156.918L145.69 167.127L143.981 168.804L133.537 158.595Z" fill="white"/>
<path d="M44.4688 179.119V191.498H41.8215L43.7013 179.119" fill="white"/>
<path d="M43.0747 179.119L40.4468 191.498H37.3673L42.3995 179.119H43.0747Z" fill="white"/>
<path d="M41.4912 179.119L35.8567 191.498H32.9083L40.5149 179.119" fill="white"/>
<path d="M38.0522 178.072L29.4693 190.074L27.0018 187.661L37.0953 177.142L38.0522 178.072Z" fill="white"/>
<path d="M34.5015 174.579L36.2161 176.25L25.7729 186.459L24.0631 184.788L34.5015 174.579Z" fill="white"/>
<path d="M14.2368 149.205H1.57373V151.792L14.2368 149.956" fill="white"/>
<path d="M14.2368 150.567L1.57373 153.139V156.148L14.2368 151.225V150.567Z" fill="white"/>
<path d="M14.2368 152.117L1.57373 157.631V160.509L14.2368 153.071" fill="white"/>
<path d="M15.3054 155.082L3.03101 163.474L5.49852 165.887L16.2575 156.012L15.3054 155.082Z" fill="white"/>
<path d="M6.33398 166.948L8.02919 168.639L18.589 158.546L16.8938 156.855L6.33398 166.948Z" fill="white"/>
<path d="M51.0747 144.375C49.875 145.159 48.0049 145.678 45.3382 144.898C42.6716 144.113 42.4044 141.899 42.4044 141.899H54.0134V135.765L42.6716 135.9C42.6716 135.9 44.0073 133.812 45.8726 133.551C49.875 132.766 51.8762 135.246 51.8762 135.246L56.2769 130.551C56.2769 130.551 55.3443 127.683 48.6704 126.898C43.0164 126.239 39.3783 129.132 38.3971 130.033C38.2174 130.193 38.13 130.295 38.13 130.295C38.13 130.295 37.994 130.033 36.7942 131.598C35.5945 133.163 34.1276 135.905 33.8604 139.946C33.5933 143.992 36.9302 147.902 39.7329 149.859C42.5356 151.817 46.2709 152.597 50.2733 151.681C54.2757 150.77 57.0784 147.117 57.0784 147.117L53.2071 142.422C53.2071 142.422 52.2745 143.594 51.0747 144.379V144.375ZM59.0796 145.809C59.0796 145.809 58.4141 146.201 58.2781 146.724C58.011 147.64 57.4767 148.159 58.6813 149.723C59.8811 151.288 61.7511 150.765 62.6837 149.723C63.6163 148.682 64.0195 147.504 62.4166 145.939C60.8137 144.374 59.0796 145.809 59.0796 145.809ZM75.7499 127.673C75.7499 127.673 75.7499 142.805 75.6236 143.585C75.4925 144.37 74.691 144.496 73.3552 144.108C72.0195 143.72 70.8197 142.543 70.8197 142.543L66.283 146.065C66.283 146.065 67.3516 148.023 69.0857 149.588C70.8197 151.153 74.2878 152.587 78.8246 151.284C83.3613 149.975 83.4925 145.935 83.4925 145.935V127.673H75.7499ZM88.3692 145.76C88.3401 145.721 88.1458 145.61 88.0632 145.562C88.1166 145.591 88.2283 145.658 88.3692 145.76ZM88.3692 145.76C88.3984 145.799 88.2769 145.76 87.762 145.542C86.5623 145.019 85.4937 144.893 84.5611 146.72C83.6285 148.546 84.8282 149.719 85.4985 150.373C86.164 151.022 88.3012 151.414 89.501 149.195C90.4287 147.48 89.0492 146.24 88.3692 145.76ZM108.168 128.056L103.5 138.1L99.3613 127.93L91.3565 128.061L100.969 151.41H106.574L116.445 127.925L108.168 128.056ZM111.908 145.794C111.908 145.794 111.242 145.925 110.839 146.317C110.441 146.71 109.639 147.621 110.174 149.321C110.708 151.012 112.578 151.274 113.642 150.881C114.71 150.494 116.445 148.924 115.24 147.102C114.04 145.276 111.903 145.799 111.903 145.799L111.908 145.794Z" fill="#1D1D1B"/>
<path d="M51.7596 146.002C50.1615 146.812 48.6752 147.151 46.9363 146.879C45.1925 146.613 43.2059 146.153 41.8993 144.665C40.5926 143.183 40.4469 140.741 40.4469 140.741L52.4882 140.697L52.4445 137.175L40.6169 137.15C40.6169 137.15 41.0006 134.52 43.0504 133.27C48.5683 130.435 51.6333 133.396 51.6333 133.396L54.368 130.304C54.368 130.304 52.4445 129.088 51.1379 128.686C49.8312 128.284 47.9418 127.339 43.439 128.686C38.9363 130.033 36.7602 133.812 36.7602 133.812C36.7602 133.812 35.745 136.104 35.5993 137.315C35.4536 138.531 34.1227 141.928 37.756 146.376C41.6855 151.337 48.3886 151.637 51.2933 149.966C52.8331 149.132 55.4997 146.884 55.4997 146.884L53.7705 144.665C53.7705 144.665 53.3577 145.193 51.7645 146.002H51.7596ZM60.9156 146.409C59.5022 146.458 58.9047 147.335 58.9047 147.335C58.9047 147.335 58.6181 147.8 58.9387 148.473C59.2593 149.147 59.779 149.355 59.779 149.355C60.2551 149.593 61.7851 149.35 62.2077 148.827C62.6303 148.1 62.3874 146.812 60.9205 146.414L60.9156 146.409ZM86.0037 146.671C85.2362 147.214 85.4062 147.815 85.4062 148.464C85.4062 149.113 86.8731 149.68 87.5386 149.549C88.2041 149.418 89.0201 147.785 88.2235 147.001C87.422 146.22 86.7711 146.124 86.0037 146.666V146.671ZM109.193 129.471L103.427 141.787L98.5598 129.515H93.3091L101.809 150.097L105.652 150.053L114.322 129.471H109.197H109.193ZM114.443 148.217C114.176 147.044 113.292 146.589 112.437 146.753C111.587 146.918 111.029 147.563 111.029 148.217C111.029 148.871 111.723 149.971 112.525 149.971C113.326 149.971 114.715 149.389 114.448 148.217H114.443Z" fill="white"/>
<path d="M95.3054 71.286C95.7037 71.0244 104.607 66.5184 106.064 65.4622C107.526 64.406 109.377 62.7005 109.77 61.6491C110.159 60.6026 111.883 58.7614 112.811 58.1025C113.739 57.4436 115.065 55.9997 115.065 55.9997C115.065 55.9997 113.321 55.0985 111.985 54.7206C110.65 54.3378 107.177 54.2361 105.579 54.3766C103.981 54.5171 100.925 56.7604 100.925 56.7604L93.7753 63.5968C93.7753 63.5968 90.7395 67.4051 89.802 67.4099C88.8694 67.4148 88.8646 67.0272 88.7286 66.3731C88.5926 65.7238 91.2349 62.8313 91.2349 62.8313C91.2349 62.8313 95.3248 57.1916 96.9083 54.832C98.4918 52.4725 97.1269 48.6981 96.85 47.5256C96.5731 46.3531 96.2914 44.1389 95.7571 44.1437C95.2228 44.1437 94.2999 45.7184 92.5804 47.5595C90.8609 49.4007 89.2677 50.3261 88.34 50.8542C87.4122 51.3823 85.6976 54.1343 85.037 55.1857C84.3813 56.2323 82.6763 60.2925 82.0109 60.8157C81.3503 61.3439 80.6751 60.5638 80.4031 59.9146C80.1311 59.2653 81.6952 54.6867 81.938 51.8135C82.1858 48.9404 80.1505 44.7833 79.6065 43.8724C79.0674 42.9664 78.7953 42.5739 78.5379 43.3588C78.2756 44.1437 75.9052 47.9471 75.1086 48.732C74.3169 49.5218 74.21 53.175 74.0935 55.1324C73.9769 57.0899 74.3995 60.2198 73.6077 61.1355C72.816 62.0561 72.408 61.276 71.8688 60.6268C71.3297 59.9775 71.5677 56.4551 71.1548 54.8902C70.7419 53.3301 69.649 50.205 68.9739 49.0373C68.2987 47.8696 66.0109 45.4083 64.2623 43.853C62.5136 42.3026 61.2993 40.3549 61.2993 40.3549C61.2993 40.3549 60.9059 41.1398 60.5124 42.0555C60.119 42.9712 59.4827 46.6293 59.4972 48.8435C59.5167 51.0625 61.6782 54.6964 63.0334 57.2982C64.3885 59.8952 66.8221 63.7906 66.8221 63.7906C66.8221 63.7906 66.9629 64.9632 66.1663 65.3605C65.3697 65.7578 64.2865 64.0717 64.2865 64.0717C64.2865 64.0717 62.397 61.6055 60.5124 59.4058C58.6278 57.2013 56.0728 55.1324 54.0667 54.2361C52.0607 53.3397 49.9283 53.6159 49.9283 53.6159C49.9283 53.6159 50.0692 54.7884 50.7492 56.3486C51.4292 57.9087 54.7953 61.6685 54.7953 61.6685C54.7953 61.6685 59.2301 65.937 60.4444 67.3663C60.459 69.0621 57.9137 67.7733 57.9137 67.7733C57.9137 67.7733 52.9641 65.9855 50.8221 65.4816C48.6848 64.9777 45.3576 66.3053 45.3576 66.3053C45.3576 66.3053 45.7656 67.4778 46.5768 68.3838C47.3831 69.2947 50.0595 70.443 51.7984 70.9517C53.5373 71.4604 58.6181 72.725 58.6181 72.725C59.8227 72.977 61.5567 72.7008 62.0959 73.7425C62.5088 75.5643 59.1718 74.8084 56.9034 74.8229C54.6351 74.8423 49.564 74.7503 46.6351 75.5546C43.7061 76.3589 41.8409 76.7658 38.6351 76.3976C35.4292 76.0294 37.3139 77.9723 39.1985 79.9152C41.0831 81.858 45.6296 83.2583 47.4997 83.5054C49.3697 83.7525 57.0977 82.517 57.0977 82.517C57.0977 82.517 60.2938 81.5819 63.0965 81.9501C64.3108 83.5054 60.9787 84.0529 60.9787 84.0529C60.9787 84.0529 55.1208 85.9231 51.2641 87.1247C47.4025 88.3311 45.2847 90.429 44.0947 91.3545C42.8998 92.275 41.3309 96.1996 41.3406 97.2461C41.3503 98.2927 43.0698 96.844 44.1384 96.4418C45.2021 96.0445 48.7966 95.1046 50.2635 94.9592C51.7304 94.8187 54.1348 94.9301 57.19 93.7334C60.2501 92.5367 63.1596 89.6441 64.6168 87.9387C66.0692 86.2332 66.8803 87.27 66.7541 88.1858C66.6278 89.1015 63.7182 92.2556 62.2659 94.2228C60.8136 96.1899 60.8378 99.063 60.8378 99.063C60.8378 99.063 62.295 97.876 63.4948 97.4787C64.6946 97.0765 66.8172 96.1511 67.8761 94.9689C68.935 93.7867 69.989 92.0812 71.1936 92.5948C72.3983 93.1084 70.4262 96.3837 69.6393 98.3459C68.8524 100.308 69.0224 104.746 69.1779 107.353C69.3333 109.96 69.0904 112.833 69.0904 112.833C69.0904 112.833 73.4717 110.192 76.255 107.954C79.0382 105.715 79.9465 102.052 80.4614 100.226C80.9811 98.3944 81.6126 94.0871 81.6126 94.0871C81.7195 91.214 83.0601 91.5967 83.8664 92.1151C84.6727 92.6336 84.9787 98.1085 84.9787 98.1085C84.9787 98.1085 86.6205 103.181 87.5677 105.003C88.5148 106.825 92.1335 108.753 92.1335 108.753L98.2878 110.924C98.2878 110.924 96.9374 108.714 96.2574 107.285C95.5822 105.856 95.8251 102.983 95.8154 101.941C95.8057 100.899 93.1099 97.0039 93.1099 97.0039C93.1099 97.0039 88.9277 91.6888 87.3054 88.8302C85.683 85.9715 88.4954 87.3863 88.4954 87.3863C88.4954 87.3863 94.1493 93.7382 95.3588 95.0319C96.5683 96.3304 100.867 99.8189 102.339 100.458C103.811 101.098 106.079 101.214 107.415 101.466C112.223 101.951 110.212 100.924 109.804 100.143C109.396 99.3634 108.323 98.3266 107.648 97.0281C106.968 95.7296 105.613 92.7402 104.942 92.2217C104.272 91.7033 98.5112 88.8786 97.7049 88.4958C96.9034 88.1082 90.0789 85.424 88.8694 84.7796C87.6648 84.1352 88.0582 83.3503 89.258 83.0839C90.4578 82.8125 94.4796 85.1333 95.9514 85.5113C97.4232 85.8892 105.175 87.5268 106.773 87.3863C108.372 87.2458 111.437 86.5675 111.437 86.5675C111.437 86.5675 111.301 86.175 110.363 85.5306C109.426 84.8862 107.677 83.331 106.871 82.4249C106.064 81.5189 103.524 81.015 103.524 81.015L98.0449 80.0121C98.0449 80.0121 94.0425 79.7795 93.4984 78.8735C92.5464 77.0565 96.5585 77.8075 96.5585 77.8075C96.5585 77.8075 104.695 77.7445 106.166 77.604C107.633 77.4635 112.549 74.9489 113.209 74.4208C113.875 73.8927 111.199 72.8704 109.455 71.7124C107.711 70.5496 104.243 70.9662 102.514 71.2424C100.784 71.5186 96.5343 74.0284 93.1973 73.9218C90.3898 73.0303 94.9168 71.5622 95.3102 71.2957L95.3054 71.286Z" fill="white"/>
<path d="M111.252 61.8526C111.645 60.9369 114.458 58.4029 115.522 57.744C116.58 57.0851 117.732 56.7604 117.188 55.8544C116.644 54.9435 115.186 54.3524 115.186 54.3524C115.186 54.3524 112.185 52.5646 108.716 52.7196C105.248 52.8747 103.514 53.7613 101.178 55.2633C98.8415 56.7653 94.5088 60.7431 94.5088 60.7431C94.5088 60.7431 98.6618 55.5249 98.7783 53.5675C98.8949 51.6101 98.7298 48.9986 98.0449 46.6535C97.36 44.3134 97.0443 41.7551 96.3788 41.76C95.7134 41.76 94.499 42.9955 93.7122 44.3037C92.9253 45.6118 89.5009 48.5964 88.0437 49.5218C86.5865 50.4473 85.1487 52.5694 82.6423 55.9804C84.2404 52.3272 82.6423 46.7165 82.6423 46.7165C82.6423 46.7165 80.714 42.3414 80.1748 41.3045C79.6357 40.2628 78.3679 40.258 78.1056 41.1737C77.8482 42.0894 76.8378 43.5236 76.8378 43.5236C76.8378 43.5236 74.1032 47.1768 73.5689 48.8048C73.0346 50.4376 72.5003 54.74 72.5003 54.74C71.966 51.7409 69.4304 45.7378 65.7632 43.4558C62.8099 41.1301 61.4936 37.5835 61.4936 37.5835C61.4936 37.5835 59.3175 40.384 58.5598 45.607C57.802 50.83 58.9581 53.5627 62.1639 58.8487C58.2295 55.9804 52.6873 51.7748 48.6897 52.5888C49.5592 60.026 58.4966 66.8092 58.4966 66.8092C58.4966 66.8092 53.4936 64.5756 51.6284 64.4593C49.7583 64.343 48.4857 63.8537 45.8239 64.6531C43.1621 65.4574 44.2161 67.5941 44.8913 68.3693C45.5664 69.1494 47.6891 70.5932 48.2282 70.976C48.7674 71.3636 53.8336 73.195 53.8336 73.195C53.8336 73.195 50.3655 73.447 49.0297 73.5875C47.6939 73.728 46.023 74.0332 44.8281 74.4354C43.6284 74.8375 41.1609 75.1912 37.6879 74.9587C34.2149 74.7261 35.2689 77.0566 36.4881 79.0043C37.7024 80.952 40.8791 82.4153 43.1572 83.83C45.4353 85.2448 53.4984 84.6779 53.4984 84.6779C53.4984 84.6779 47.0188 87.1441 45.5616 88.2003C44.1044 89.2566 41.8797 91.5241 41.224 93.2247C40.5731 94.9253 39.3491 97.9923 40.0242 98.7675C40.6994 99.5476 44.765 97.2801 46.227 96.8779C47.6891 96.4758 50.5646 96.5 52.4298 96.3546C54.295 96.2093 60.5707 93.4185 60.5707 93.4185C60.5707 93.4185 58.8269 97.4642 58.9678 98.8983C59.1135 100.332 59.4389 101.641 60.2355 101.243C61.0321 100.846 61.4401 99.7559 62.7711 99.3538C64.102 98.9516 69.0418 95.8992 69.0418 95.8992C69.0418 95.8992 68.0947 97.721 67.8421 99.4216C67.5895 101.117 67.3564 102.033 67.6429 104.378C68.0655 107.377 68.0898 109.005 67.3078 111.748C67.0649 114.752 67.1815 115.343 68.5075 114.684C69.8384 114.02 72.8451 111.878 72.8451 111.878C72.8451 111.878 77.5956 108.109 79.4462 106.268C81.3017 104.427 82.9192 96.8101 82.9192 96.8101C82.9192 96.8101 84.1772 101.117 84.7213 102.29C85.2653 103.458 85.9065 105.497 87.3879 107.179C88.8694 108.86 91.1184 110.323 92.8573 110.963C94.5962 111.602 96.2622 112.266 98.3946 112.266C99.5944 111.864 100.61 111.999 99.6624 110.701C98.7152 109.403 97.1949 107.179 96.9277 104.766C97.9283 100.657 95.3248 97.5272 95.3248 97.5272C95.3248 97.5272 98.0595 99.877 99.1281 100.463C100.746 101.35 104.529 102.76 106.531 103.007C108.537 103.254 112.209 103.724 112.471 102.682C112.729 101.636 112.073 100.531 112.073 100.531C112.073 100.531 110.888 99.2181 109.537 97.1396C108.187 95.061 107.4 92.6385 105.865 90.8797C104.121 89.586 102.062 88.4668 102.062 88.4668C102.062 88.4668 106.603 89.1936 108.202 88.9223C109.8 88.6509 112.67 88.5976 114.006 87.6819C114.268 86.897 114.477 86.364 113.005 85.5937C111.534 84.8233 109.275 82.8465 108.338 81.8096C107.395 80.7728 103.869 79.3289 103.869 79.3289C103.869 79.3289 105.87 79.0189 107.735 78.6119C109.6 78.2049 111.743 76.7368 113.608 76.0682C115.468 75.3996 117.353 74.823 116.542 73.5245C115.468 73.0109 114.147 72.6039 113.205 72.0903C112.267 71.5768 110.742 70.5157 109.401 69.8713C108.061 69.2269 101.994 69.6097 101.994 69.6097C101.994 69.6097 105.467 67.5311 106.798 66.7414C108.124 65.9468 110.878 62.7684 111.267 61.8478L111.252 61.8526ZM95.3005 71.2861C94.9022 71.5525 90.38 73.0206 93.1876 73.9121C96.5245 74.0187 100.775 71.5089 102.504 71.2328C104.238 70.9566 107.701 70.5399 109.445 71.7027C111.189 72.8607 113.865 73.8879 113.2 74.4112C112.539 74.9393 107.624 77.4539 106.157 77.5944C104.685 77.7349 96.5488 77.7979 96.5488 77.7979C96.5488 77.7979 92.5367 77.0469 93.4887 78.8638C94.0327 79.7747 98.0352 80.0024 98.0352 80.0024L103.514 81.0053C103.514 81.0053 106.055 81.5092 106.861 82.4153C107.667 83.3213 109.416 84.8766 110.353 85.521C111.296 86.1654 111.427 86.5578 111.427 86.5578C111.427 86.5578 108.367 87.2313 106.764 87.3767C105.166 87.5172 97.4134 85.8795 95.9417 85.5016C94.4699 85.1237 90.448 82.8029 89.2483 83.0742C88.0485 83.3455 87.6551 84.1304 88.8597 84.7748C90.0643 85.4192 96.8937 88.1034 97.6952 88.491C98.4966 88.8738 104.257 91.7033 104.933 92.2169C105.603 92.7354 106.963 95.7248 107.638 97.0233C108.313 98.3218 109.392 99.3586 109.795 100.139C110.203 100.919 112.214 101.946 107.405 101.461C106.069 101.209 103.801 101.098 102.329 100.454C100.852 99.8141 96.5585 96.3256 95.3491 95.0271C94.1396 93.7334 88.4857 87.3815 88.4857 87.3815C88.4857 87.3815 85.6733 85.9667 87.2956 88.8254C88.918 91.684 93.1001 96.999 93.1001 96.999C93.1001 96.999 95.7959 100.89 95.8057 101.936C95.8154 102.983 95.5725 105.851 96.2477 107.28C96.9277 108.71 98.278 110.919 98.278 110.919L92.1238 108.748C92.1238 108.748 88.5051 106.82 87.5579 104.998C86.6108 103.181 84.969 98.1037 84.969 98.1037C84.969 98.1037 84.663 92.6288 83.8567 92.1103C83.0503 91.5919 81.7097 91.214 81.6029 94.0823C81.6029 94.0823 80.9666 98.3944 80.4517 100.221C79.932 102.052 79.0285 105.711 76.2453 107.949C73.462 110.187 69.0807 112.828 69.0807 112.828C69.0807 112.828 69.3236 109.955 69.173 107.348C69.0176 104.742 68.8476 100.308 69.6344 98.3411C70.4213 96.3789 72.3934 93.1036 71.1888 92.59C69.9842 92.0764 68.9301 93.7819 67.8712 94.9641C66.8123 96.1463 64.6848 97.0766 63.4899 97.4739C62.295 97.876 60.833 99.0582 60.833 99.0582C60.833 99.0582 60.8087 96.1899 62.261 94.218C63.7134 92.2508 66.6229 89.0967 66.7492 88.181C66.8755 87.2652 66.0643 86.2284 64.612 87.9387C63.1596 89.6442 60.2453 92.5367 57.1851 93.7334C54.125 94.9302 51.7255 94.8187 50.2586 94.9593C48.7917 95.0998 45.1973 96.0397 44.1335 96.4419C43.0698 96.8392 41.3454 98.2878 41.3357 97.2462C41.326 96.2045 42.8998 92.2751 44.0898 91.3545C45.2847 90.4339 47.4025 88.3312 51.2592 87.1247C55.1208 85.9231 60.9738 84.0529 60.9738 84.0529C60.9738 84.0529 64.306 83.5054 63.0916 81.9501C60.289 81.5819 57.0928 82.517 57.0928 82.517C57.0928 82.517 49.3649 83.7477 47.4948 83.5054C45.6247 83.2583 41.0783 81.8581 39.1936 79.9152C37.309 77.9723 35.4292 76.0294 38.6302 76.3976C41.836 76.7659 43.7012 76.3589 46.6302 75.5546C49.5592 74.7503 54.6302 74.8424 56.8986 74.823C59.1669 74.8085 62.5088 75.5643 62.091 73.7425C61.547 72.7008 59.8178 72.977 58.6132 72.7251C58.6132 72.7251 53.5324 71.4605 51.7935 70.9518C50.0546 70.443 47.3782 69.2899 46.5719 68.3838C45.7656 67.4778 45.3527 66.3053 45.3527 66.3053C45.3527 66.3053 48.68 64.9729 50.8172 65.4816C52.9544 65.9904 57.9089 67.7734 57.9089 67.7734C57.9089 67.7734 60.4541 69.0573 60.4395 67.3615C59.2252 65.9371 54.7905 61.6637 54.7905 61.6637C54.7905 61.6637 51.4244 57.9039 50.7443 56.3438C50.0643 54.7836 49.9234 53.6111 49.9234 53.6111C49.9234 53.6111 51.6867 53.7032 53.6976 54.5995C55.7085 55.4959 58.4966 57.3273 60.5124 59.401C62.533 61.4844 64.2865 64.0669 64.2865 64.0669C64.2865 64.0669 65.3649 65.7529 66.1663 65.3556C66.9629 64.9584 66.8221 63.7858 66.8221 63.7858C66.8221 63.7858 64.3885 59.8904 63.0333 57.2934C61.6782 54.6916 59.5166 51.0577 59.4972 48.8387C59.4778 46.6196 60.119 42.9664 60.5124 42.0507C60.9058 41.135 61.2993 40.3501 61.2993 40.3501C61.2993 40.3501 62.5136 42.2978 64.2623 43.8482C66.0109 45.3987 68.2987 47.86 68.9738 49.0325C69.649 50.2002 70.7419 53.3252 71.1548 54.8854C71.5677 56.4455 71.3296 59.9727 71.8688 60.622C72.408 61.2712 72.816 62.0513 73.6077 61.1307C74.3995 60.2101 73.9769 57.0851 74.0935 55.1276C74.21 53.1702 74.3169 49.517 75.1086 48.7272C75.9052 47.9375 78.2756 44.1389 78.5379 43.354C78.8002 42.5691 79.0673 42.9567 79.6065 43.8676C80.1505 44.7785 82.1857 48.9356 81.938 51.8087C81.6952 54.6819 80.1311 59.2605 80.4031 59.9098C80.6751 60.559 81.3503 61.3391 82.0109 60.8109C82.6763 60.2828 84.3764 56.2275 85.037 55.1809C85.6976 54.1344 87.4122 51.3824 88.34 50.8494C89.2677 50.3213 90.8609 49.3959 92.5804 47.5547C94.2999 45.7136 95.2228 44.1438 95.7571 44.1389C96.2914 44.1389 96.5731 46.3483 96.85 47.5208C97.1269 48.6933 98.4918 52.4677 96.9083 54.8272C95.3248 57.1868 91.2349 62.8265 91.2349 62.8265C91.2349 62.8265 88.5877 65.7142 88.7285 66.3683C88.8694 67.0175 88.8694 67.41 89.802 67.4051C90.7346 67.3954 93.7753 63.592 93.7753 63.592L100.925 56.7556C100.925 56.7556 103.976 54.5123 105.579 54.3718C107.177 54.2313 110.65 54.333 111.985 54.7158C113.321 55.0986 115.065 55.9949 115.065 55.9949C115.065 55.9949 113.744 57.4387 112.811 58.0977C111.883 58.7566 110.159 60.5978 109.77 61.6443C109.377 62.6908 107.526 64.4012 106.064 65.4574C104.607 66.5136 95.7037 71.0147 95.3054 71.2812L95.3005 71.2861Z" fill="#1D1D1B"/>
<path d="M85.5179 69.5321C84.4104 68.7569 82.4092 68.7714 80.714 69.2753C80.9132 68.8829 80.7966 67.0272 80.1894 66.0533C79.5822 65.0795 78.7711 63.718 74.9678 63.844C71.1645 63.9699 70.4068 68.8683 70.4068 68.8683C70.4068 68.8683 69.513 69.4643 68.8087 69.4691C68.1093 69.474 66.9095 69.7792 66.0158 70.569C65.122 71.3587 64.136 73.2241 64.2477 74.3966C64.3546 75.5691 65.2677 77.1292 65.2677 77.1292L67.3855 78.8735C67.3855 78.8735 66.7929 79.5615 66.7978 80.7389C66.8075 81.9114 67.2155 83.1808 68.731 84.833C70.2465 86.4851 71.5434 86.3786 73.2435 86.0733C74.9435 85.7681 76.4299 84.0917 76.4299 84.0917C76.4299 84.0917 76.935 84.7748 77.8433 85.4483C78.7468 86.1266 80.3546 86.7032 82.7492 85.7051C85.1439 84.707 85.7268 82.454 85.8142 80.9859C85.9016 79.5179 85.1973 78.544 85.1973 78.544C85.1973 78.544 85.4936 78.2485 86.2902 77.5556C87.0868 76.8676 87.6843 76.8628 88.068 74.3142C88.4469 71.7657 86.6351 70.3122 85.5276 69.5418L85.5179 69.5321ZM73.0929 67.1822C73.9818 65.7093 77.0856 65.782 77.8919 66.8528C78.6982 67.9235 78.6108 69.2947 78.4165 70.0796C78.2222 70.8645 77.5228 71.0632 77.5228 71.0632L76.7213 70.9711C75.9198 70.8791 74.6229 71.3781 74.1226 71.383C73.6223 71.383 72.8111 69.9246 72.8111 69.9246C72.8111 69.9246 72.1991 68.6552 73.088 67.1822H73.0929ZM68.7699 77.294C67.6624 76.4219 66.8512 75.3511 66.8512 75.3511C66.8512 75.3511 66.0352 73.5003 67.5264 72.1194C69.0176 70.7386 70.6254 71.412 71.3297 71.9934C72.034 72.5748 72.34 73.0594 72.34 73.0594C72.34 73.0594 71.6454 73.946 71.4511 74.5323C71.2568 75.1185 71.1645 76.0972 71.1645 76.0972C71.1645 76.0972 69.3673 76.4025 68.7747 77.2891L68.7699 77.294ZM74.2198 83.0257C73.2289 83.8155 72.5343 84.896 70.4213 83.6411C68.3084 82.3862 69.0953 80.2253 69.3867 79.639C69.683 79.0479 71.8785 78.3502 71.8785 78.3502C71.8785 78.3502 72.1846 79.2272 73.0929 79.9055C73.9963 80.5838 74.8998 80.7728 74.8998 80.7728C74.8998 80.7728 75.2107 82.236 74.2198 83.0257ZM73.6758 77.357C73.054 74.8181 73.8555 74.6146 73.8555 74.6146C73.8555 74.6146 75.6333 71.6688 78.9557 74.1834C80.4711 76.2281 79.0868 78.0983 78.2902 78.5925C77.4936 79.0867 75.4001 80.0799 73.6758 77.357ZM82.4286 83.4521C81.8312 83.9463 80.2331 84.3485 79.4317 83.8688C78.6254 83.3843 77.717 81.9259 77.717 81.9259V81.1458C77.717 81.1458 79.0091 80.7437 79.8057 80.2495C80.6023 79.7553 81.292 78.2824 81.292 78.2824C81.292 78.2824 83.0941 78.6603 83.711 80.5111C84.0218 81.8775 83.0309 82.9628 82.4335 83.457L82.4286 83.4521ZM85.1682 75.603C84.7747 76.3879 83.8761 76.7852 83.8761 76.7852C83.8761 76.7852 82.5695 76.2087 81.4669 75.729C81.8506 73.5729 80.0437 72.6088 80.0437 72.6088C80.0437 72.6088 80.6363 71.9208 81.1366 71.4266C81.632 70.9324 84.0267 69.9391 85.343 71.8868C86.6594 73.8346 85.5665 74.8181 85.173 75.603H85.1682Z" fill="#1D1D1B"/>
<path d="M77.1634 128.972H82.3316V144.505C82.3316 144.505 82.759 147.926 79.728 149.685C76.6971 151.439 73.6661 150.436 72.6412 150.101C71.6163 149.767 70.0377 149.142 67.9879 146.303C69.484 145.135 70.8926 144.089 70.8926 144.089C70.8926 144.089 72.3449 145.925 73.9673 145.969C75.5896 146.012 77.1245 145.843 77.1245 143.754C77.1245 141.666 77.1682 128.972 77.1682 128.972H77.1634Z" fill="white"/>
</g>
<defs>
<clipPath id="clip0_222_576">
<rect width="152" height="193" fill="white"/>
</clipPath>
</defs>
</svg>
